<svg width="40" height="40" viewBox="0 0 40 40" fill="none" xmlns="http://www.w3.org/2000/svg">
<mask id="path-1-inside-1_2253_583" fill="white">
<path d="M15.4658 5L14.4068 5.12746C14.4068 5.12746 9.65561 5.64678 6.18578 8.43322H6.1451L6.10171 8.4739C5.32341 9.18983 4.98442 10.0698 4.44883 11.3566C3.81748 12.9048 3.28001 14.4896 2.83934 16.1024C1.83324 19.7403 1.01697 24.1471 1.01697 28.1783V28.5173L1.18646 28.8563C2.44205 31.0597 4.6712 32.463 6.73764 33.4325C8.80273 34.402 10.5885 34.9159 11.8224 34.958L12.6278 35L13.0509 34.28L14.5343 31.6522C16.1071 32.0075 17.9187 32.2461 20 32.2461C22.0814 32.2461 23.8929 32.0075 25.4658 31.6522L26.9492 34.28L27.3736 35L28.1776 34.958C29.4115 34.9159 31.1973 34.402 33.2624 33.4325C35.3288 32.463 37.558 31.0597 38.8136 28.8563L38.9831 28.5173V28.1783C38.9831 24.1471 38.1668 19.7403 37.1607 16.1024C36.72 14.4896 36.1825 12.9048 35.5512 11.3566C35.0156 10.0685 34.6766 9.18983 33.8983 8.47525L33.8563 8.43186H33.8129C30.3458 5.64678 25.5932 5.12746 25.5932 5.12746L24.5343 5L24.1519 5.97492C24.1519 5.97492 23.76 6.96475 23.5173 8.09424C22.3516 7.9334 21.1767 7.84825 20 7.83932C19.2746 7.83932 18.0204 7.88678 16.4827 8.09424C16.2387 6.96475 15.8468 5.97492 15.8468 5.97492L15.4658 5ZM13.6014 8.09424C13.6597 8.28407 13.718 8.44814 13.7709 8.60271C12.0176 9.03661 10.1478 9.6983 8.43256 10.7627L9.87256 13.0515C13.3898 10.8685 18.442 10.5512 20 10.5512C21.5566 10.5512 26.6102 10.8685 30.1275 13.0515L31.5675 10.7627C29.8522 9.6983 27.9824 9.03661 26.2292 8.60136C26.282 8.44814 26.3404 8.28407 26.3987 8.09288C27.6637 8.3478 30.08 8.93085 32.0759 10.5092C32.0651 10.5146 32.5844 11.2983 33.0509 12.4156C33.5281 13.5654 34.057 15.0963 34.5342 16.8224C35.4509 20.1322 36.1709 24.1634 36.2292 27.7119C35.3749 29.0149 33.7926 30.1905 32.118 30.9756C31.0678 31.4719 29.9567 31.8275 28.8136 32.0332L28.1356 30.8902C28.5383 30.741 28.9356 30.5783 29.28 30.4237C31.3668 29.5071 32.5004 28.5173 32.5004 28.5173L30.72 26.4834C30.72 26.4834 29.958 27.1831 28.1776 27.9668C26.4 28.7505 23.6814 29.5342 20 29.5342C16.3187 29.5342 13.6014 28.7505 11.8224 27.9668C10.0421 27.1831 9.28002 26.4834 9.28002 26.4834L7.49968 28.5173C7.49968 28.5173 8.63324 29.5071 10.72 30.4237C11.0644 30.5783 11.4617 30.7424 11.8644 30.8902L11.1865 32.0346C10.0427 31.8281 8.93118 31.4715 7.88069 30.9742C6.20747 30.1905 4.62375 29.0149 3.77222 27.7119C3.82917 24.1634 4.54917 20.1322 5.46714 16.8224C5.87276 15.3252 6.36766 13.8536 6.94917 12.4156C7.41561 11.2983 7.93493 10.5146 7.92408 10.5092C9.92002 8.93085 12.3363 8.3478 13.6014 8.09424ZM15.2543 17.3308C14.2061 17.3308 13.2787 17.9288 12.7119 18.6868C12.1451 19.4447 11.8644 20.3763 11.8644 21.3986C11.8644 22.421 12.1451 23.3525 12.7119 24.1105C13.2787 24.8685 14.2061 25.4664 15.2543 25.4664C16.3024 25.4664 17.2298 24.8685 17.7966 24.1105C18.3634 23.3525 18.6441 22.421 18.6441 21.3986C18.6441 20.3763 18.3634 19.4447 17.7966 18.6868C17.2298 17.9288 16.3024 17.3308 15.2543 17.3308ZM24.7458 17.3308C23.6976 17.3308 22.7702 17.9288 22.2034 18.6868C21.6366 19.4447 21.3559 20.3763 21.3559 21.3986C21.3559 22.421 21.6366 23.3525 22.2034 24.1105C22.7702 24.8685 23.6976 25.4664 24.7458 25.4664C25.7939 25.4664 26.7214 24.8685 27.2881 24.1105C27.8549 23.3525 28.1356 22.421 28.1356 21.3986C28.1356 20.3763 27.8549 19.4447 27.2881 18.6868C26.7214 17.9288 25.7939 17.3308 24.7458 17.3308ZM15.2543 20.0427C15.3288 20.0427 15.4237 20.0698 15.5932 20.2976C15.7627 20.5241 15.9322 20.9214 15.9322 21.3986C15.9322 21.8759 15.7627 22.2732 15.5932 22.501C15.4237 22.7275 15.3288 22.7546 15.2543 22.7546C15.1797 22.7546 15.0848 22.7275 14.9153 22.4997C14.691 22.1766 14.5726 21.7919 14.5763 21.3986C14.5763 20.9214 14.7458 20.5241 14.9153 20.2963C15.0848 20.0698 15.1797 20.0427 15.2543 20.0427ZM24.7458 20.0427C24.8204 20.0427 24.9153 20.0698 25.0848 20.2976C25.2542 20.5241 25.4237 20.9214 25.4237 21.3986C25.4237 21.8759 25.2542 22.2732 25.0848 22.501C24.9153 22.7275 24.8204 22.7546 24.7458 22.7546C24.6712 22.7546 24.5763 22.7275 24.4068 22.4997C24.1826 22.1766 24.0641 21.7919 24.0678 21.3986C24.0678 20.9214 24.2373 20.5241 24.4068 20.2963C24.5763 20.0698 24.6712 20.0427 24.7458 20.0427Z"/>
</mask>
<path d="M15.4658 5L14.4068 5.12746C14.4068 5.12746 9.65561 5.64678 6.18578 8.43322H6.1451L6.10171 8.4739C5.32341 9.18983 4.98442 10.0698 4.44883 11.3566C3.81748 12.9048 3.28001 14.4896 2.83934 16.1024C1.83324 19.7403 1.01697 24.1471 1.01697 28.1783V28.5173L1.18646 28.8563C2.44205 31.0597 4.6712 32.463 6.73764 33.4325C8.80273 34.402 10.5885 34.9159 11.8224 34.958L12.6278 35L13.0509 34.28L14.5343 31.6522C16.1071 32.0075 17.9187 32.2461 20 32.2461C22.0814 32.2461 23.8929 32.0075 25.4658 31.6522L26.9492 34.28L27.3736 35L28.1776 34.958C29.4115 34.9159 31.1973 34.402 33.2624 33.4325C35.3288 32.463 37.558 31.0597 38.8136 28.8563L38.9831 28.5173V28.1783C38.9831 24.1471 38.1668 19.7403 37.1607 16.1024C36.72 14.4896 36.1825 12.9048 35.5512 11.3566C35.0156 10.0685 34.6766 9.18983 33.8983 8.47525L33.8563 8.43186H33.8129C30.3458 5.64678 25.5932 5.12746 25.5932 5.12746L24.5343 5L24.1519 5.97492C24.1519 5.97492 23.76 6.96475 23.5173 8.09424C22.3516 7.9334 21.1767 7.84825 20 7.83932C19.2746 7.83932 18.0204 7.88678 16.4827 8.09424C16.2387 6.96475 15.8468 5.97492 15.8468 5.97492L15.4658 5ZM13.6014 8.09424C13.6597 8.28407 13.718 8.44814 13.7709 8.60271C12.0176 9.03661 10.1478 9.6983 8.43256 10.7627L9.87256 13.0515C13.3898 10.8685 18.442 10.5512 20 10.5512C21.5566 10.5512 26.6102 10.8685 30.1275 13.0515L31.5675 10.7627C29.8522 9.6983 27.9824 9.03661 26.2292 8.60136C26.282 8.44814 26.3404 8.28407 26.3987 8.09288C27.6637 8.3478 30.08 8.93085 32.0759 10.5092C32.0651 10.5146 32.5844 11.2983 33.0509 12.4156C33.5281 13.5654 34.057 15.0963 34.5342 16.8224C35.4509 20.1322 36.1709 24.1634 36.2292 27.7119C35.3749 29.0149 33.7926 30.1905 32.118 30.9756C31.0678 31.4719 29.9567 31.8275 28.8136 32.0332L28.1356 30.8902C28.5383 30.741 28.9356 30.5783 29.28 30.4237C31.3668 29.5071 32.5004 28.5173 32.5004 28.5173L30.72 26.4834C30.72 26.4834 29.958 27.1831 28.1776 27.9668C26.4 28.7505 23.6814 29.5342 20 29.5342C16.3187 29.5342 13.6014 28.7505 11.8224 27.9668C10.0421 27.1831 9.28002 26.4834 9.28002 26.4834L7.49968 28.5173C7.49968 28.5173 8.63324 29.5071 10.72 30.4237C11.0644 30.5783 11.4617 30.7424 11.8644 30.8902L11.1865 32.0346C10.0427 31.8281 8.93118 31.4715 7.88069 30.9742C6.20747 30.1905 4.62375 29.0149 3.77222 27.7119C3.82917 24.1634 4.54917 20.1322 5.46714 16.8224C5.87276 15.3252 6.36766 13.8536 6.94917 12.4156C7.41561 11.2983 7.93493 10.5146 7.92408 10.5092C9.92002 8.93085 12.3363 8.3478 13.6014 8.09424ZM15.2543 17.3308C14.2061 17.3308 13.2787 17.9288 12.7119 18.6868C12.1451 19.4447 11.8644 20.3763 11.8644 21.3986C11.8644 22.421 12.1451 23.3525 12.7119 24.1105C13.2787 24.8685 14.2061 25.4664 15.2543 25.4664C16.3024 25.4664 17.2298 24.8685 17.7966 24.1105C18.3634 23.3525 18.6441 22.421 18.6441 21.3986C18.6441 20.3763 18.3634 19.4447 17.7966 18.6868C17.2298 17.9288 16.3024 17.3308 15.2543 17.3308ZM24.7458 17.3308C23.6976 17.3308 22.7702 17.9288 22.2034 18.6868C21.6366 19.4447 21.3559 20.3763 21.3559 21.3986C21.3559 22.421 21.6366 23.3525 22.2034 24.1105C22.7702 24.8685 23.6976 25.4664 24.7458 25.4664C25.7939 25.4664 26.7214 24.8685 27.2881 24.1105C27.8549 23.3525 28.1356 22.421 28.1356 21.3986C28.1356 20.3763 27.8549 19.4447 27.2881 18.6868C26.7214 17.9288 25.7939 17.3308 24.7458 17.3308ZM15.2543 20.0427C15.3288 20.0427 15.4237 20.0698 15.5932 20.2976C15.7627 20.5241 15.9322 20.9214 15.9322 21.3986C15.9322 21.8759 15.7627 22.2732 15.5932 22.501C15.4237 22.7275 15.3288 22.7546 15.2543 22.7546C15.1797 22.7546 15.0848 22.7275 14.9153 22.4997C14.691 22.1766 14.5726 21.7919 14.5763 21.3986C14.5763 20.9214 14.7458 20.5241 14.9153 20.2963C15.0848 20.0698 15.1797 20.0427 15.2543 20.0427ZM24.7458 20.0427C24.8204 20.0427 24.9153 20.0698 25.0848 20.2976C25.2542 20.5241 25.4237 20.9214 25.4237 21.3986C25.4237 21.8759 25.2542 22.2732 25.0848 22.501C24.9153 22.7275 24.8204 22.7546 24.7458 22.7546C24.6712 22.7546 24.5763 22.7275 24.4068 22.4997C24.1826 22.1766 24.0641 21.7919 24.0678 21.3986C24.0678 20.9214 24.2373 20.5241 24.4068 20.2963C24.5763 20.0698 24.6712 20.0427 24.7458 20.0427Z" fill="#B2C2CB" stroke="#2E333A" stroke-width="0.8" mask="url(#path-1-inside-1_2253_583)"/>
</svg>
