<svg width="26" height="25" viewBox="0 0 26 25" fill="none" xmlns="http://www.w3.org/2000/svg">
<path d="M13.0009 15.5C14.6577 15.5 16.0009 14.1569 16.0009 12.5C16.0009 10.8431 14.6577 9.5 13.0009 9.5C11.344 9.5 10.0009 10.8431 10.0009 12.5C10.0009 14.1569 11.344 15.5 13.0009 15.5Z" fill="#72E4F9"/>
<path d="M24.0089 11.6844C22.7686 9.76625 21.1594 8.13688 19.3557 6.97203C17.3602 5.68203 15.1571 5 12.9849 5C10.9917 5 9.03191 5.56953 7.15972 6.69266C5.2505 7.83781 3.52081 9.51078 2.01847 11.6647C1.84887 11.9081 1.75546 12.1965 1.75012 12.4931C1.74478 12.7897 1.82774 13.0813 1.98847 13.3306C3.22644 15.268 4.81972 16.8997 6.59534 18.0486C8.59456 19.3438 10.7461 20 12.9849 20C15.1744 20 17.3822 19.3236 19.3692 18.0444C21.1721 16.8833 22.778 15.2478 24.0136 13.3137C24.1688 13.0702 24.2509 12.7872 24.25 12.4984C24.2492 12.2096 24.1655 11.9271 24.0089 11.6844ZM13.0008 17C12.1108 17 11.2408 16.7361 10.5007 16.2416C9.76073 15.7471 9.18395 15.0443 8.84335 14.2221C8.50276 13.3998 8.41365 12.495 8.58728 11.6221C8.76091 10.7492 9.1895 9.94736 9.81883 9.31802C10.4482 8.68868 11.25 8.2601 12.1229 8.08647C12.9958 7.91283 13.9006 8.00195 14.7229 8.34254C15.5452 8.68314 16.248 9.25991 16.7424 9.99993C17.2369 10.74 17.5008 11.61 17.5008 12.5C17.4994 13.6931 17.0249 14.8369 16.1813 15.6805C15.3377 16.5241 14.1939 16.9986 13.0008 17Z" fill="#72E4F9"/>
</svg>
